<?xml version="1.0" encoding="UTF-8" standalone="no"?>
<svg width="311px" height="12px" viewBox="0 0 311 12" version="1.1" xmlns="http://www.w3.org/2000/svg" xmlns:xlink="http://www.w3.org/1999/xlink">
    <!-- Generator: Sketch 3.6 (26304) - http://www.bohemiancoding.com/sketch -->
    <title>Status Bar/White/100% 2</title>
    <desc>Created with Sketch.</desc>
    <defs></defs>
    <g id="Page-2" stroke="none" stroke-width="1" fill="none" fill-rule="evenodd">
        <g id="Leaderboard" transform="translate(-5.000000, -3.000000)" fill="#FFFFFF">
            <g id="Status-Bar/White/100%-2">
                <path d="M7.89333333,12.05 C9.18936155,12.05 10.24,11.0034656 10.24,9.7125 C10.24,8.4215344 9.18936155,7.375 7.89333333,7.375 C6.59730512,7.375 5.54666667,8.4215344 5.54666667,9.7125 C5.54666667,11.0034656 6.59730512,12.05 7.89333333,12.05 Z M13.8666667,12.05 C15.1626949,12.05 16.2133333,11.0034656 16.2133333,9.7125 C16.2133333,8.4215344 15.1626949,7.375 13.8666667,7.375 C12.5706385,7.375 11.52,8.4215344 11.52,9.7125 C11.52,11.0034656 12.5706385,12.05 13.8666667,12.05 Z M19.84,12.05 C21.1360282,12.05 22.1866667,11.0034656 22.1866667,9.7125 C22.1866667,8.4215344 21.1360282,7.375 19.84,7.375 C18.5439718,7.375 17.4933333,8.4215344 17.4933333,9.7125 C17.4933333,11.0034656 18.5439718,12.05 19.84,12.05 Z M25.8133333,12.05 C27.1093615,12.05 28.16,11.0034656 28.16,9.7125 C28.16,8.4215344 27.1093615,7.375 25.8133333,7.375 C24.5173051,7.375 23.4666667,8.4215344 23.4666667,9.7125 C23.4666667,11.0034656 24.5173051,12.05 25.8133333,12.05 Z M31.7866667,12.05 C33.0826949,12.05 34.1333333,11.0034656 34.1333333,9.7125 C34.1333333,8.4215344 33.0826949,7.375 31.7866667,7.375 C30.4906385,7.375 29.44,8.4215344 29.44,9.7125 C29.44,11.0034656 30.4906385,12.05 31.7866667,12.05 Z" id="Mobile-Signal"></path>
                <text id="Carrier" font-family=".AppleSystemUIFont" font-size="11.953125" font-weight="normal">
                    <tspan x="37.5466667" y="13.975">Sketch</tspan>
                </text>
                <path d="M82.0432391,9.57272867 C81.6011724,9.06862872 80.9406819,8.74857513 80.2027205,8.74857513 C79.4786195,8.74857513 78.8291067,9.05671901 78.387341,9.54452004 L80.2325667,11.325 L82.0432391,9.57272867 Z M83.9027169,7.77322608 C82.9822117,6.81298379 81.6652277,6.21178756 80.2027205,6.21178756 C78.752659,6.21178756 77.4456545,6.80279509 76.5263102,7.74878956 L77.4564682,8.64630996 C78.1373482,7.92956518 79.1156463,7.48018135 80.2027205,7.48018135 C81.3029407,7.48018135 82.291738,7.94049978 82.9735437,8.67242992 L83.9027169,7.77322608 L83.9027169,7.77322608 Z M85.76,5.97584743 C84.3630573,4.55852121 82.3898197,3.675 80.2027205,3.675 C78.0266755,3.675 76.0623357,4.54961264 74.6666667,5.95439766 L75.5964228,6.85153025 C76.7539881,5.67616907 78.389668,4.94339378 80.2027205,4.94339378 C82.0275222,4.94339378 83.672645,5.68569717 84.8314622,6.87443631 L85.76,5.97584743 Z" id="Wi-Fi"></path>
                <text id="9:41-AM" font-family=".AppleSystemUIFont" font-size="11.953125" font-weight="normal">
                    <tspan x="136.846657" y="13.975">9:41 AM</tspan>
                </text>
                <text id="100%" font-family=".AppleSystemUIFont" font-size="8" font-weight="normal">
                    <tspan x="271.932979" y="12.425">100%</tspan>
                </text>
                <path d="M295.906592,4.675 C295.074524,4.675 294.4,5.34958099 294.4,6.17492108 L294.4,11.2500789 C294.4,12.0784625 295.07208,12.75 295.906592,12.75 L312.093408,12.75 C312.925476,12.75 313.6,12.075419 313.6,11.2500789 L313.6,6.17492108 C313.6,5.34653754 312.92792,4.675 312.093408,4.675 L295.906592,4.675 Z M314.026667,7.225 L314.026667,10.2 L314.666667,10.2 C315.020129,10.2 315.306667,9.90386922 315.306667,9.56907902 L315.306667,7.85592098 C315.306667,7.50747295 315.022593,7.225 314.666667,7.225 L314.026667,7.225 Z M295.826092,5.1 C295.274125,5.1 294.826667,5.55195611 294.826667,6.10460529 L294.826667,11.3203947 C294.826667,11.8752229 295.280182,12.325 295.826092,12.325 L312.173908,12.325 C312.725875,12.325 313.173333,11.8730439 313.173333,11.3203947 L313.173333,6.10460529 C313.173333,5.54977711 312.719818,5.1 312.173908,5.1 L295.826092,5.1 Z M295.758009,5.525 C295.479284,5.525 295.253333,5.75188963 295.253333,6.02523556 L295.253333,11.3997644 C295.253333,11.6760369 295.474514,11.9 295.758009,11.9 L312.241991,11.9 C312.520716,11.9 312.746667,11.6731104 312.746667,11.3997644 L312.746667,6.02523556 C312.746667,5.74896309 312.525486,5.525 312.241991,5.525 L295.758009,5.525 Z" id="Battery"></path>
            </g>
        </g>
    </g>
</svg>