<?xml version="1.0" encoding="utf-8"?>
<!-- Generator: Adobe Illustrator 16.0.0, SVG Export Plug-In . SVG Version: 6.00 Build 0)  -->
<!DOCTYPE svg PUBLIC "-//W3C//DTD SVG 1.1//EN" "http://www.w3.org/Graphics/SVG/1.1/DTD/svg11.dtd">
<svg version="1.1" id="Layer_2" xmlns="http://www.w3.org/2000/svg" xmlns:xlink="http://www.w3.org/1999/xlink" x="0px" y="0px"
	 width="612px" height="792px" viewBox="0 0 612 792" enable-background="new 0 0 612 792" xml:space="preserve">
<path fill="#FFFFFF" stroke="#000000" stroke-width="3" stroke-miterlimit="10" d="M512.348,293.925l-46,84l-35-18v254h-276v-254
	l-35,18l-46-84l82-102l79-23l6-6c0,0,42,13,52,11c10,2,52-11,52-11l6,6l79,23L512.348,293.925z"/>
<path fill="#FFFFFF" stroke="#000000" stroke-width="3" stroke-miterlimit="10" d="M156.348,191.925c0,0,18.348,128.925-1,168"/>
<path fill="#FFFFFF" stroke="#000000" stroke-width="3" stroke-miterlimit="10" d="M431.348,359.925c0,0-27.652-128.075-1-168"/>
<path fill="none" stroke="#000000" stroke-width="3" stroke-miterlimit="10" d="M349.636,168.76
	c-1.56,20.354-25.359,37.101-55.014,38.036c-31.105,0.982-56.877-15.802-57.561-37.49"/>
<circle fill="#E4E417" cx="293.348" cy="345.243" r="97.53"/>
<ellipse cx="258.674" cy="318.742" rx="14.174" ry="26.5"/>
<ellipse cx="322" cy="318.742" rx="14.174" ry="26.5"/>
<path fill="none" stroke="#000000" stroke-width="3" stroke-miterlimit="10" d="M235.848,375.314c0,0,53,59,115,0"/>
</svg>
